<svg width="1024" height="1024" viewBox="0 0 1024 1024" fill="none" xmlns="http://www.w3.org/2000/svg">
  <defs>
    <linearGradient id="paper" x1="88" y1="58" x2="920" y2="970" gradientUnits="userSpaceOnUse">
      <stop stop-color="#E8D4A7"/>
      <stop offset="0.55" stop-color="#D7B884"/>
      <stop offset="1" stop-color="#C69F66"/>
    </linearGradient>
    <linearGradient id="sky" x1="512" y1="90" x2="512" y2="450" gradientUnits="userSpaceOnUse">
      <stop stop-color="#9FB9BE"/>
      <stop offset="1" stop-color="#DCC69E"/>
    </linearGradient>
    <linearGradient id="coat" x1="0" y1="0" x2="1" y2="1">
      <stop stop-color="#7D4B30"/>
      <stop offset="1" stop-color="#603B29"/>
    </linearGradient>
    <linearGradient id="shirt" x1="0" y1="0" x2="1" y2="1">
      <stop stop-color="#ECE3CB"/>
      <stop offset="1" stop-color="#CCBA95"/>
    </linearGradient>
    <linearGradient id="beer" x1="0" y1="0" x2="1" y2="1">
      <stop stop-color="#9F4A11"/>
      <stop offset="0.45" stop-color="#C67418"/>
      <stop offset="1" stop-color="#E9A52A"/>
    </linearGradient>
    <filter id="grain">
      <feTurbulence type="fractalNoise" baseFrequency="0.85" numOctaves="2" stitchTiles="stitch"/>
      <feColorMatrix type="saturate" values="0"/>
      <feComponentTransfer>
        <feFuncA type="table" tableValues="0 0 0.03 0.065"/>
      </feComponentTransfer>
    </filter>
  </defs>

  <rect width="1024" height="1024" fill="#C39A61"/>
  <rect x="24" y="24" width="976" height="976" fill="url(#paper)"/>
  <rect x="44" y="44" width="936" height="936" stroke="#F3E2C4" stroke-opacity="0.32" stroke-width="4"/>

  <rect x="68" y="68" width="888" height="560" fill="url(#sky)"/>
  <rect x="68" y="372" width="888" height="256" fill="#B28D5A"/>

  <rect x="112" y="402" width="114" height="162" fill="#8F6A45"/>
  <rect x="138" y="340" width="18" height="62" fill="#7E5A3B"/>
  <path d="M130 341C130 341 108 299 114 275C120 251 140 243 140 243C140 243 147 297 168 341H130Z" fill="#D0C4A7"/>

  <rect x="768" y="398" width="124" height="134" fill="#97754F"/>
  <rect x="818" y="360" width="20" height="38" fill="#7F6042"/>
  <path d="M780 532H910V556H780V532Z" fill="#876645"/>

  <g>
    <ellipse cx="528" cy="258" rx="124" ry="142" fill="#D5A473"/>
    <path d="M418 252C433 172 486 118 563 117C616 116 651 143 665 195C631 175 608 169 563 171C512 174 464 193 418 252Z" fill="#8A572D"/>
    <path d="M416 278C440 232 496 202 551 202C604 202 643 227 652 274L665 470C666 520 625 569 554 580C482 591 426 557 415 494L416 278Z" fill="#D8AA7C"/>
    <ellipse cx="480" cy="292" rx="13" ry="10" fill="#53351D"/>
    <ellipse cx="592" cy="292" rx="13" ry="10" fill="#53351D"/>
    <path d="M474 346C500 361 571 361 595 346" stroke="#91552B" stroke-width="8" stroke-linecap="round"/>
    <path d="M520 322C526 331 537 333 547 323" stroke="#91552B" stroke-width="6" stroke-linecap="round"/>
    <path d="M440 256C458 227 489 209 523 209" stroke="#6B431F" stroke-width="10" stroke-linecap="round"/>
    <path d="M551 209C584 209 611 220 632 246" stroke="#6B431F" stroke-width="10" stroke-linecap="round"/>
  </g>

  <path d="M346 760L360 560C369 493 407 454 467 431L442 685L487 760H346Z" fill="url(#coat)"/>
  <path d="M730 760L715 556C705 494 670 455 610 432L635 684L588 760H730Z" fill="url(#coat)"/>
  <path d="M356 630C359 518 377 468 426 437L468 418H562L610 439C675 468 705 534 710 630V760H356V630Z" fill="url(#shirt)"/>
  <path d="M462 514H606V760H462V514Z" fill="#62707A"/>
  <path d="M462 514L534 612L606 514V565L534 659L462 565V514Z" fill="#4D5A62"/>

  <g>
    <path d="M240 528C247 482 278 454 320 454H368C382 454 392 464 392 478V587C392 601 380 613 366 613H308C262 613 229 578 240 528Z" fill="#D6A778"/>
    <rect x="304" y="438" width="117" height="180" rx="18" fill="#D4DAE1" stroke="#888A8D" stroke-width="6"/>
    <rect x="318" y="452" width="88" height="141" rx="10" fill="url(#beer)"/>
    <path d="M320 452H406V488C387 499 348 499 320 488V452Z" fill="#F4F0E2"/>
    <path d="M417 464H441C456 464 468 475 468 489V535C468 549 456 560 441 560H417" stroke="#888A8D" stroke-width="12"/>
    <path d="M317 452C327 426 394 425 406 452C414 471 398 495 381 495H345C326 495 310 472 317 452Z" fill="#FBF5E8"/>
  </g>

  <g opacity="0.94">
    <ellipse cx="784" cy="798" rx="116" ry="66" fill="#E9D7B4"/>
    <ellipse cx="784" cy="798" rx="106" ry="56" fill="#F8EBD1"/>
    <ellipse cx="760" cy="804" rx="28" ry="19" fill="#A24F26"/>
    <ellipse cx="796" cy="809" rx="34" ry="17" fill="#BA642F"/>
    <ellipse cx="838" cy="794" rx="25" ry="16" fill="#C06C36"/>
    <path d="M738 842C758 820 775 823 796 845" stroke="#5D8A44" stroke-width="10" stroke-linecap="round"/>
    <path d="M804 846C822 824 842 825 860 844" stroke="#6B924B" stroke-width="10" stroke-linecap="round"/>
  </g>

  <g opacity="0.96">
    <ellipse cx="748" cy="650" rx="70" ry="80" fill="#A3724A"/>
    <ellipse cx="838" cy="654" rx="66" ry="78" fill="#A87850"/>
    <path d="M704 650C719 626 740 614 762 612" stroke="#5A3B24" stroke-width="8" stroke-linecap="round"/>
    <path d="M798 652C814 627 834 615 856 614" stroke="#5A3B24" stroke-width="8" stroke-linecap="round"/>
    <path d="M685 716C706 678 732 659 763 656L776 744H687L685 716Z" fill="#6C4A32"/>
    <path d="M789 720C807 681 829 662 862 658L880 744H792L789 720Z" fill="#5C4634"/>
    <rect x="750" y="711" width="62" height="40" rx="8" fill="#D4DAE1" stroke="#888A8D" stroke-width="4"/>
    <rect x="761" y="719" width="40" height="24" rx="5" fill="url(#beer)"/>
    <path d="M757 711C763 699 799 699 806 711C809 718 803 725 795 725H768C759 725 753 718 757 711Z" fill="#FBF5E8"/>
    <rect x="840" y="713" width="62" height="39" rx="8" fill="#D4DAE1" stroke="#888A8D" stroke-width="4"/>
    <rect x="851" y="721" width="40" height="23" rx="5" fill="url(#beer)"/>
    <path d="M847 713C853 701 889 701 896 713C899 719 893 725 885 725H858C849 725 843 719 847 713Z" fill="#FBF5E8"/>
  </g>

  <g opacity="0.92">
    <rect x="112" y="665" width="52" height="125" fill="#7A5940"/>
    <rect x="173" y="675" width="44" height="115" fill="#8A6846"/>
    <rect x="226" y="661" width="48" height="129" fill="#8D4527"/>
    <rect x="116" y="646" width="44" height="20" fill="#D8CFB9"/>
    <rect x="177" y="656" width="36" height="20" fill="#D8CFB9"/>
    <rect x="230" y="642" width="40" height="20" fill="#D8CFB9"/>
  </g>

  <text x="512" y="862" text-anchor="middle" fill="#C53717" font-family="Montserrat, Arial, sans-serif" font-size="92" font-weight="800">
    ПЬЮ
  </text>
  <text x="512" y="944" text-anchor="middle" fill="#C53717" font-family="Montserrat, Arial, sans-serif" font-size="84" font-weight="800">
    ПО ВЫХОДНЫМ
  </text>

  <rect width="1024" height="1024" fill="#000000" filter="url(#grain)" opacity="0.22"/>
</svg>
